<?xml version="1.0" encoding="utf-8"?>
<!-- Generated by IcoMoon.io -->
<!DOCTYPE svg PUBLIC "-//W3C//DTD SVG 1.1//EN" "http://www.w3.org/Graphics/SVG/1.1/DTD/svg11.dtd">
<svg version="1.1" xmlns="http://www.w3.org/2000/svg" xmlns:xlink="http://www.w3.org/1999/xlink" width="1520" height="176" viewBox="0 0 1520 176">
<svg id="icon-home" width="32" height="32" viewBox="0 0 32 32" x="0" y="0">
<path fill="#444444" d="M32 18.451l-16-12.42-16 12.42v-5.064l16-12.42 16 12.42zM28 18v12h-8v-8h-8v8h-8v-12l12-9z"></path>
</svg>
<svg id="icon-file-picture" width="32" height="32" viewBox="0 0 32 32" x="48" y="0">
<path fill="#444444" d="M26 28h-20v-4l6-10 8.219 10 5.781-4v8z"></path>
<path fill="#444444" d="M26 15c0 1.657-1.343 3-3 3s-3-1.343-3-3 1.343-3 3-3c1.657 0 3 1.343 3 3z"></path>
<path fill="#444444" d="M28.681 7.159c-0.694-0.947-1.662-2.053-2.724-3.116s-2.169-2.030-3.116-2.724c-1.612-1.182-2.393-1.319-2.841-1.319h-15.5c-1.378 0-2.5 1.121-2.5 2.5v27c0 1.378 1.122 2.5 2.5 2.5h23c1.378 0 2.5-1.122 2.5-2.5v-19.5c0-0.448-0.137-1.23-1.319-2.841zM24.543 5.457c0.959 0.959 1.712 1.825 2.268 2.543h-4.811v-4.811c0.718 0.556 1.584 1.309 2.543 2.268zM28 29.5c0 0.271-0.229 0.5-0.5 0.5h-23c-0.271 0-0.5-0.229-0.5-0.5v-27c0-0.271 0.229-0.5 0.5-0.5 0 0 15.499-0 15.5 0v7c0 0.552 0.448 1 1 1h7v19.5z"></path>
</svg>
<svg id="icon-file-music" width="32" height="32" viewBox="0 0 32 32" x="96" y="0">
<path fill="#444444" d="M28.681 7.159c-0.694-0.947-1.662-2.053-2.724-3.116s-2.169-2.030-3.116-2.724c-1.612-1.182-2.393-1.319-2.841-1.319h-15.5c-1.378 0-2.5 1.121-2.5 2.5v27c0 1.378 1.121 2.5 2.5 2.5h23c1.378 0 2.5-1.122 2.5-2.5v-19.5c0-0.448-0.137-1.23-1.319-2.841v0zM24.543 5.457c0.959 0.959 1.712 1.825 2.268 2.543h-4.811v-4.811c0.718 0.556 1.584 1.309 2.543 2.268v0zM28 29.5c0 0.271-0.229 0.5-0.5 0.5h-23c-0.271 0-0.5-0.229-0.5-0.5v-27c0-0.271 0.229-0.5 0.5-0.5 0 0 15.499-0 15.5 0v7c0 0.552 0.448 1 1 1h7v19.5z"></path>
<path fill="#444444" d="M23.634 12.227c-0.232-0.19-0.536-0.266-0.83-0.207l-10 2c-0.467 0.094-0.804 0.504-0.804 0.981v7.402c-0.588-0.255-1.271-0.402-2-0.402-2.209 0-4 1.343-4 3s1.791 3 4 3 4-1.343 4-3v-7.18l8-1.6v4.183c-0.588-0.255-1.271-0.402-2-0.402-2.209 0-4 1.343-4 3s1.791 3 4 3 4-1.343 4-3v-10c0-0.3-0.134-0.583-0.366-0.773z"></path>
</svg>
<svg id="icon-file-play" width="32" height="32" viewBox="0 0 32 32" x="144" y="0">
<path fill="#444444" d="M12 12l10 7-10 7v-14z"></path>
<path fill="#444444" d="M28.681 7.159c-0.694-0.947-1.662-2.053-2.724-3.116s-2.169-2.030-3.116-2.724c-1.612-1.182-2.393-1.319-2.841-1.319h-15.5c-1.378 0-2.5 1.121-2.5 2.5v27c0 1.378 1.122 2.5 2.5 2.5h23c1.378 0 2.5-1.122 2.5-2.5v-19.5c0-0.448-0.137-1.23-1.319-2.841zM24.543 5.457c0.959 0.959 1.712 1.825 2.268 2.543h-4.811v-4.811c0.718 0.556 1.584 1.309 2.543 2.268zM28 29.5c0 0.271-0.229 0.5-0.5 0.5h-23c-0.271 0-0.5-0.229-0.5-0.5v-27c0-0.271 0.229-0.5 0.5-0.5 0 0 15.499-0 15.5 0v7c0 0.552 0.448 1 1 1h7v19.5z"></path>
</svg>
<svg id="icon-file-video" width="32" height="32" viewBox="0 0 32 32" x="192" y="0">
<path fill="#444444" d="M28.681 7.159c-0.694-0.947-1.662-2.053-2.724-3.116s-2.169-2.030-3.116-2.724c-1.612-1.182-2.394-1.319-2.841-1.319h-15.5c-1.378 0-2.5 1.121-2.5 2.5v27c0 1.378 1.121 2.5 2.5 2.5h23c1.378 0 2.5-1.122 2.5-2.5v-19.5c0-0.448-0.137-1.23-1.319-2.841v0 0zM24.543 5.457c0.959 0.959 1.712 1.825 2.268 2.543h-4.811v-4.811c0.718 0.556 1.584 1.309 2.543 2.268v0 0zM28 29.5c0 0.271-0.229 0.5-0.5 0.5h-23c-0.271 0-0.5-0.229-0.5-0.5v-27c0-0.271 0.229-0.5 0.5-0.5 0 0 15.499-0 15.5 0v7c0 0.552 0.448 1 1 1h7v19.5z"></path>
<path fill="#444444" d="M8 16h10v10h-10v-10z"></path>
<path fill="#444444" d="M18 20l6-4v10l-6-4z"></path>
</svg>
<svg id="icon-file-zip" width="32" height="32" viewBox="0 0 32 32" x="240" y="0">
<path fill="#444444" d="M28.681 7.159c-0.694-0.947-1.662-2.053-2.724-3.116s-2.169-2.030-3.116-2.724c-1.612-1.182-2.393-1.319-2.841-1.319h-15.5c-1.378 0-2.5 1.121-2.5 2.5v27c0 1.378 1.121 2.5 2.5 2.5h23c1.378 0 2.5-1.122 2.5-2.5v-19.5c0-0.448-0.137-1.23-1.319-2.841v0 0zM24.543 5.457c0.959 0.959 1.712 1.825 2.268 2.543h-4.811v-4.811c0.718 0.556 1.584 1.309 2.543 2.268v0 0zM28 29.5c0 0.271-0.229 0.5-0.5 0.5h-23c-0.271 0-0.5-0.229-0.5-0.5v-27c0-0.271 0.229-0.5 0.5-0.5 0 0 15.499-0 15.5 0v7c0 0.552 0.448 1 1 1h7v19.5z"></path>
<path fill="#444444" d="M8 2h4v2h-4v-2z"></path>
<path fill="#444444" d="M12 4h4v2h-4v-2z"></path>
<path fill="#444444" d="M8 6h4v2h-4v-2z"></path>
<path fill="#444444" d="M12 8h4v2h-4v-2z"></path>
<path fill="#444444" d="M8 10h4v2h-4v-2z"></path>
<path fill="#444444" d="M12 12h4v2h-4v-2z"></path>
<path fill="#444444" d="M8 14h4v2h-4v-2z"></path>
<path fill="#444444" d="M12 16h4v2h-4v-2z"></path>
<path fill="#444444" d="M8 26.5c0 0.825 0.675 1.5 1.5 1.5h5c0.825 0 1.5-0.675 1.5-1.5v-5c0-0.825-0.675-1.5-1.5-1.5h-2.5v-2h-4v8.5zM14 24v2h-4v-2h4z"></path>
</svg>
<svg id="icon-clock" width="32" height="32" viewBox="0 0 32 32" x="288" y="0">
<path fill="#444444" d="M20.586 23.414l-6.586-6.586v-8.828h4v7.172l5.414 5.414zM16 0c-8.837 0-16 7.163-16 16s7.163 16 16 16 16-7.163 16-16-7.163-16-16-16zM16 28c-6.627 0-12-5.373-12-12s5.373-12 12-12c6.627 0 12 5.373 12 12s-5.373 12-12 12z"></path>
</svg>
<svg id="icon-display" width="32" height="32" viewBox="0 0 32 32" x="336" y="0">
<path fill="#444444" d="M0 2v20h32v-20h-32zM30 20h-28v-16h28v16zM21 24h-10l-1 4-2 2h16l-2-2z"></path>
</svg>
<svg id="icon-laptop" width="32" height="32" viewBox="0 0 32 32" x="384" y="0">
<path fill="#444444" d="M28 22v-16c0-1.1-0.9-2-2-2h-20c-1.1 0-2 0.9-2 2v16h-4v6h32v-6h-4zM20 26h-8v-2h8v2zM26 22h-20v-15.996c0.001-0.001 0.002-0.003 0.004-0.004h19.993c0.001 0.001 0.003 0.002 0.004 0.004v15.996z"></path>
</svg>
<svg id="icon-mobile" width="32" height="32" viewBox="0 0 32 32" x="432" y="0">
<path fill="#444444" d="M23 0h-14c-1.65 0-3 1.35-3 3v26c0 1.65 1.35 3 3 3h14c1.65 0 3-1.35 3-3v-26c0-1.65-1.35-3-3-3zM12 1.5h8v1h-8v-1zM16 30c-1.105 0-2-0.895-2-2s0.895-2 2-2 2 0.895 2 2-0.895 2-2 2zM24 24h-16v-20h16v20z"></path>
</svg>
<svg id="icon-mobile2" width="32" height="32" viewBox="0 0 32 32" x="480" y="0">
<path fill="#444444" d="M24 0h-18c-1.1 0-2 0.9-2 2v28c0 1.1 0.9 2 2 2h18c1.1 0 2-0.9 2-2v-28c0-1.1-0.9-2-2-2zM15 30.556c-0.859 0-1.556-0.697-1.556-1.556s0.697-1.556 1.556-1.556 1.556 0.697 1.556 1.556-0.697 1.556-1.556 1.556zM24 26h-18v-22h18v22z"></path>
</svg>
<svg id="icon-tablet" width="32" height="32" viewBox="0 0 32 32" x="528" y="0">
<path fill="#444444" d="M25 0h-20c-1.65 0-3 1.35-3 3v26c0 1.65 1.35 3 3 3h20c1.65 0 3-1.35 3-3v-26c0-1.65-1.35-3-3-3zM15 31c-0.552 0-1-0.448-1-1s0.448-1 1-1 1 0.448 1 1-0.448 1-1 1zM24 28h-18v-24h18v24z"></path>
</svg>
<svg id="icon-bubble" width="32" height="32" viewBox="0 0 32 32" x="576" y="0">
<path fill="#444444" d="M16 2c8.837 0 16 5.82 16 13s-7.163 13-16 13c-0.849 0-1.682-0.054-2.495-0.158-3.437 3.437-7.539 4.053-11.505 4.144v-0.841c2.142-1.049 4-2.961 4-5.145 0-0.305-0.024-0.604-0.068-0.897-3.619-2.383-5.932-6.024-5.932-10.103 0-7.18 7.163-13 16-13z"></path>
</svg>
<svg id="icon-bubbles" width="36" height="32" viewBox="0 0 36 32" x="624" y="0">
<path fill="#444444" d="M34 28.161c0 1.422 0.813 2.653 2 3.256v0.498c-0.332 0.045-0.671 0.070-1.016 0.070-2.125 0-4.042-0.892-5.398-2.321-0.819 0.218-1.688 0.336-2.587 0.336-4.971 0-9-3.582-9-8s4.029-8 9-8c4.971 0 9 3.582 9 8 0 1.73-0.618 3.331-1.667 4.64-0.213 0.463-0.333 0.979-0.333 1.522zM16 0c8.702 0 15.781 5.644 15.995 12.672-1.537-0.685-3.237-1.047-4.995-1.047-2.986 0-5.807 1.045-7.942 2.943-2.214 1.968-3.433 4.607-3.433 7.432 0 1.396 0.298 2.747 0.867 3.993-0.163 0.004-0.327 0.007-0.492 0.007-0.849 0-1.682-0.054-2.495-0.158-3.437 3.437-7.539 4.053-11.505 4.144v-0.841c2.142-1.049 4-2.961 4-5.145 0-0.305-0.024-0.604-0.068-0.897-3.619-2.383-5.932-6.024-5.932-10.103 0-7.18 7.163-13 16-13z"></path>
</svg>
<svg id="icon-bubbles2" width="36" height="32" viewBox="0 0 36 32" x="720" y="0">
<path fill="#444444" d="M15 0v0c8.284 0 15 5.435 15 12.139s-6.716 12.139-15 12.139c-0.796 0-1.576-0.051-2.339-0.147-3.222 3.209-6.943 3.785-10.661 3.869v-0.785c2.008-0.98 3.625-2.765 3.625-4.804 0-0.285-0.022-0.564-0.063-0.837-3.392-2.225-5.562-5.625-5.562-9.434 0-6.704 6.716-12.139 15-12.139zM31.125 27.209c0 1.748 1.135 3.278 2.875 4.118v0.673c-3.223-0.072-6.181-0.566-8.973-3.316-0.661 0.083-1.337 0.126-2.027 0.126-2.983 0-5.732-0.805-7.925-2.157 4.521-0.016 8.789-1.464 12.026-4.084 1.631-1.32 2.919-2.87 3.825-4.605 0.961-1.84 1.449-3.799 1.449-5.825 0-0.326-0.014-0.651-0.039-0.974 2.268 1.873 3.664 4.426 3.664 7.24 0 3.265-1.88 6.179-4.82 8.086-0.036 0.234-0.055 0.474-0.055 0.718z"></path>
</svg>
<svg id="icon-user" width="32" height="32" viewBox="0 0 32 32" x="816" y="0">
<path fill="#444444" d="M18 22.082v-1.649c2.203-1.241 4-4.337 4-7.432 0-4.971 0-9-6-9s-6 4.029-6 9c0 3.096 1.797 6.191 4 7.432v1.649c-6.784 0.555-12 3.888-12 7.918h28c0-4.030-5.216-7.364-12-7.918z"></path>
</svg>
<svg id="icon-users" width="36" height="32" viewBox="0 0 36 32" x="864" y="0">
<path fill="#444444" d="M24 24.082v-1.649c2.203-1.241 4-4.337 4-7.432 0-4.971 0-9-6-9s-6 4.029-6 9c0 3.096 1.797 6.191 4 7.432v1.649c-6.784 0.555-12 3.888-12 7.918h28c0-4.030-5.216-7.364-12-7.918z"></path>
<path fill="#444444" d="M10.225 24.854c1.728-1.13 3.877-1.989 6.243-2.513-0.47-0.556-0.897-1.176-1.265-1.844-0.95-1.726-1.453-3.627-1.453-5.497 0-2.689 0-5.228 0.956-7.305 0.928-2.016 2.598-3.265 4.976-3.734-0.529-2.39-1.936-3.961-5.682-3.961-6 0-6 4.029-6 9 0 3.096 1.797 6.191 4 7.432v1.649c-6.784 0.555-12 3.888-12 7.918h8.719c0.454-0.403 0.956-0.787 1.506-1.146z"></path>
</svg>
<svg id="icon-user-plus" width="32" height="32" viewBox="0 0 32 32" x="960" y="0">
<path fill="#444444" d="M12 23c0-4.726 2.996-8.765 7.189-10.319 0.509-1.142 0.811-2.411 0.811-3.681 0-4.971 0-9-6-9s-6 4.029-6 9c0 3.096 1.797 6.191 4 7.432v1.649c-6.784 0.555-12 3.888-12 7.918h12.416c-0.271-0.954-0.416-1.96-0.416-3z"></path>
<path fill="#444444" d="M23 14c-4.971 0-9 4.029-9 9s4.029 9 9 9c4.971 0 9-4.029 9-9s-4.029-9-9-9zM28 24h-4v4h-2v-4h-4v-2h4v-4h2v4h4v2z"></path>
</svg>
<svg id="icon-user-minus" width="32" height="32" viewBox="0 0 32 32" x="1008" y="0">
<path fill="#444444" d="M12 23c0-4.726 2.996-8.765 7.189-10.319 0.509-1.142 0.811-2.411 0.811-3.681 0-4.971 0-9-6-9s-6 4.029-6 9c0 3.096 1.797 6.191 4 7.432v1.649c-6.784 0.555-12 3.888-12 7.918h12.416c-0.271-0.954-0.416-1.96-0.416-3z"></path>
<path fill="#444444" d="M23 14c-4.971 0-9 4.029-9 9s4.029 9 9 9c4.971 0 9-4.029 9-9s-4.029-9-9-9zM28 24h-10v-2h10v2z"></path>
</svg>
<svg id="icon-user-check" width="32" height="32" viewBox="0 0 32 32" x="1056" y="0">
<path fill="#444444" d="M30 19l-9 9-3-3-2 2 5 5 11-11z"></path>
<path fill="#444444" d="M14 24h10v-3.598c-2.101-1.225-4.885-2.066-8-2.321v-1.649c2.203-1.242 4-4.337 4-7.432 0-4.971 0-9-6-9s-6 4.029-6 9c0 3.096 1.797 6.191 4 7.432v1.649c-6.784 0.555-12 3.888-12 7.918h14v-2z"></path>
</svg>
<svg id="icon-quotes-left" width="32" height="32" viewBox="0 0 32 32" x="1104" y="0">
<path fill="#444444" d="M7.031 14c3.866 0 7 3.134 7 7s-3.134 7-7 7-7-3.134-7-7l-0.031-1c0-7.732 6.268-14 14-14v4c-2.671 0-5.182 1.040-7.071 2.929-0.364 0.364-0.695 0.751-0.995 1.157 0.357-0.056 0.724-0.086 1.097-0.086zM25.031 14c3.866 0 7 3.134 7 7s-3.134 7-7 7-7-3.134-7-7l-0.031-1c0-7.732 6.268-14 14-14v4c-2.671 0-5.182 1.040-7.071 2.929-0.364 0.364-0.695 0.751-0.995 1.157 0.358-0.056 0.724-0.086 1.097-0.086z"></path>
</svg>
<svg id="icon-quotes-right" width="32" height="32" viewBox="0 0 32 32" x="1152" y="0">
<path fill="#444444" d="M25 20c-3.866 0-7-3.134-7-7s3.134-7 7-7 7 3.134 7 7l0.031 1c0 7.732-6.268 14-14 14v-4c2.671 0 5.182-1.040 7.071-2.929 0.364-0.364 0.695-0.75 0.995-1.157-0.357 0.056-0.724 0.086-1.097 0.086zM7 20c-3.866 0-7-3.134-7-7s3.134-7 7-7 7 3.134 7 7l0.031 1c0 7.732-6.268 14-14 14v-4c2.671 0 5.182-1.040 7.071-2.929 0.364-0.364 0.695-0.75 0.995-1.157-0.357 0.056-0.724 0.086-1.097 0.086z"></path>
</svg>
<svg id="icon-spinner8" width="32" height="32" viewBox="0 0 32 32" x="1200" y="0">
<path fill="#444444" d="M16 32c-4.274 0-8.292-1.664-11.314-4.686s-4.686-7.040-4.686-11.314c0-3.026 0.849-5.973 2.456-8.522 1.563-2.478 3.771-4.48 6.386-5.791l1.344 2.682c-2.126 1.065-3.922 2.693-5.192 4.708-1.305 2.069-1.994 4.462-1.994 6.922 0 7.168 5.832 13 13 13s13-5.832 13-13c0-2.459-0.69-4.853-1.994-6.922-1.271-2.015-3.066-3.643-5.192-4.708l1.344-2.682c2.615 1.31 4.824 3.313 6.386 5.791 1.607 2.549 2.456 5.495 2.456 8.522 0 4.274-1.664 8.292-4.686 11.314s-7.040 4.686-11.314 4.686z"></path>
</svg>
<svg id="icon-spinner11" width="32" height="32" viewBox="0 0 32 32" x="1248" y="0">
<path fill="#444444" d="M32 12h-12l4.485-4.485c-2.267-2.266-5.28-3.515-8.485-3.515s-6.219 1.248-8.485 3.515c-2.266 2.267-3.515 5.28-3.515 8.485s1.248 6.219 3.515 8.485c2.267 2.266 5.28 3.515 8.485 3.515s6.219-1.248 8.485-3.515c0.189-0.189 0.371-0.384 0.546-0.583l3.010 2.634c-2.933 3.349-7.239 5.464-12.041 5.464-8.837 0-16-7.163-16-16s7.163-16 16-16c4.418 0 8.418 1.791 11.313 4.687l4.687-4.687v12z"></path>
</svg>
<svg id="icon-search" width="32" height="32" viewBox="0 0 32 32" x="1296" y="0">
<path fill="#444444" d="M31.008 27.231l-7.58-6.447c-0.784-0.705-1.622-1.029-2.299-0.998 1.789-2.096 2.87-4.815 2.87-7.787 0-6.627-5.373-12-12-12s-12 5.373-12 12 5.373 12 12 12c2.972 0 5.691-1.081 7.787-2.87-0.031 0.677 0.293 1.515 0.998 2.299l6.447 7.58c1.104 1.226 2.907 1.33 4.007 0.23s0.997-2.903-0.23-4.007zM12 20c-4.418 0-8-3.582-8-8s3.582-8 8-8 8 3.582 8 8-3.582 8-8 8z"></path>
</svg>
<svg id="icon-zoom-in" width="32" height="32" viewBox="0 0 32 32" x="1344" y="0">
<path fill="#444444" d="M31.008 27.231l-7.58-6.447c-0.784-0.705-1.622-1.029-2.299-0.998 1.789-2.096 2.87-4.815 2.87-7.787 0-6.627-5.373-12-12-12s-12 5.373-12 12 5.373 12 12 12c2.972 0 5.691-1.081 7.787-2.87-0.031 0.677 0.293 1.515 0.998 2.299l6.447 7.58c1.104 1.226 2.907 1.33 4.007 0.23s0.997-2.903-0.23-4.007zM12 20c-4.418 0-8-3.582-8-8s3.582-8 8-8 8 3.582 8 8-3.582 8-8 8zM14 6h-4v4h-4v4h4v4h4v-4h4v-4h-4z"></path>
</svg>
<svg id="icon-zoom-out" width="32" height="32" viewBox="0 0 32 32" x="1392" y="0">
<path fill="#444444" d="M31.008 27.231l-7.58-6.447c-0.784-0.705-1.622-1.029-2.299-0.998 1.789-2.096 2.87-4.815 2.87-7.787 0-6.627-5.373-12-12-12s-12 5.373-12 12 5.373 12 12 12c2.972 0 5.691-1.081 7.787-2.87-0.031 0.677 0.293 1.515 0.998 2.299l6.447 7.58c1.104 1.226 2.907 1.33 4.007 0.23s0.997-2.903-0.23-4.007zM12 20c-4.418 0-8-3.582-8-8s3.582-8 8-8 8 3.582 8 8-3.582 8-8 8zM6 10h12v4h-12z"></path>
</svg>
<svg id="icon-enlarge2" width="32" height="32" viewBox="0 0 32 32" x="1440" y="0">
<path fill="#444444" d="M32 0v13l-5-5-6 6-3-3 6-6-5-5zM14 21l-6 6 5 5h-13v-13l5 5 6-6z"></path>
</svg>
<svg id="icon-shrink2" width="32" height="32" viewBox="0 0 32 32" x="1488" y="0">
<path fill="#444444" d="M14 18v13l-5-5-6 6-3-3 6-6-5-5zM32 3l-6 6 5 5h-13v-13l5 5 6-6z"></path>
</svg>
<svg id="icon-lock" width="32" height="32" viewBox="0 0 32 32" x="0" y="48">
<path fill="#444444" d="M18.5 14h-0.5v-6c0-3.308-2.692-6-6-6h-4c-3.308 0-6 2.692-6 6v6h-0.5c-0.825 0-1.5 0.675-1.5 1.5v15c0 0.825 0.675 1.5 1.5 1.5h17c0.825 0 1.5-0.675 1.5-1.5v-15c0-0.825-0.675-1.5-1.5-1.5zM6 8c0-1.103 0.897-2 2-2h4c1.103 0 2 0.897 2 2v6h-8v-6z"></path>
</svg>
<svg id="icon-unlocked" width="32" height="32" viewBox="0 0 32 32" x="48" y="48">
<path fill="#444444" d="M24 2c3.308 0 6 2.692 6 6v6h-4v-6c0-1.103-0.897-2-2-2h-4c-1.103 0-2 0.897-2 2v6h0.5c0.825 0 1.5 0.675 1.5 1.5v15c0 0.825-0.675 1.5-1.5 1.5h-17c-0.825 0-1.5-0.675-1.5-1.5v-15c0-0.825 0.675-1.5 1.5-1.5h12.5v-6c0-3.308 2.692-6 6-6h4z"></path>
</svg>
<svg id="icon-cog" width="32" height="32" viewBox="0 0 32 32" x="96" y="48">
<path fill="#444444" d="M29.181 19.070c-1.679-2.908-0.669-6.634 2.255-8.328l-3.145-5.447c-0.898 0.527-1.943 0.829-3.058 0.829-3.361 0-6.085-2.742-6.085-6.125h-6.289c0.008 1.044-0.252 2.103-0.811 3.070-1.679 2.908-5.411 3.897-8.339 2.211l-3.144 5.447c0.905 0.515 1.689 1.268 2.246 2.234 1.676 2.903 0.672 6.623-2.241 8.319l3.145 5.447c0.895-0.522 1.935-0.82 3.044-0.82 3.35 0 6.067 2.725 6.084 6.092h6.289c-0.003-1.034 0.259-2.080 0.811-3.038 1.676-2.903 5.399-3.894 8.325-2.219l3.145-5.447c-0.899-0.515-1.678-1.266-2.232-2.226zM16 22.479c-3.578 0-6.479-2.901-6.479-6.479s2.901-6.479 6.479-6.479c3.578 0 6.479 2.901 6.479 6.479s-2.901 6.479-6.479 6.479z"></path>
</svg>
<svg id="icon-link" width="32" height="32" viewBox="0 0 32 32" x="144" y="48">
<path fill="#444444" d="M13.757 19.868c-0.416 0-0.832-0.159-1.149-0.476-2.973-2.973-2.973-7.81 0-10.783l6-6c1.44-1.44 3.355-2.233 5.392-2.233s3.951 0.793 5.392 2.233c2.973 2.973 2.973 7.81 0 10.783l-2.743 2.743c-0.635 0.635-1.663 0.635-2.298 0s-0.635-1.663 0-2.298l2.743-2.743c1.706-1.706 1.706-4.481 0-6.187-0.826-0.826-1.925-1.281-3.094-1.281s-2.267 0.455-3.094 1.281l-6 6c-1.706 1.706-1.706 4.481 0 6.187 0.635 0.635 0.635 1.663 0 2.298-0.317 0.317-0.733 0.476-1.149 0.476z"></path>
<path fill="#444444" d="M8 31.625c-2.037 0-3.952-0.793-5.392-2.233-2.973-2.973-2.973-7.81 0-10.783l2.743-2.743c0.635-0.635 1.664-0.635 2.298 0s0.635 1.663 0 2.298l-2.743 2.743c-1.706 1.706-1.706 4.481 0 6.187 0.826 0.826 1.925 1.281 3.094 1.281s2.267-0.455 3.094-1.281l6-6c1.706-1.706 1.706-4.481 0-6.187-0.635-0.635-0.635-1.663 0-2.298s1.663-0.635 2.298 0c2.973 2.973 2.973 7.81 0 10.783l-6 6c-1.44 1.44-3.355 2.233-5.392 2.233z"></path>
</svg>
<svg id="icon-flag" width="32" height="32" viewBox="0 0 32 32" x="192" y="48">
<path fill="#444444" d="M0 0h4v32h-4v-32z"></path>
<path fill="#444444" d="M26 20.094c2.582 0 4.83-0.625 6-1.547v-16c-1.17 0.922-3.418 1.547-6 1.547s-4.83-0.625-6-1.547v16c1.17 0.922 3.418 1.547 6 1.547z"></path>
<path fill="#444444" d="M19 1.016c-1.466-0.623-3.61-1.016-6-1.016-3.012 0-5.635 0.625-7 1.547v16c1.365-0.922 3.988-1.547 7-1.547 2.39 0 4.534 0.393 6 1.016v-16z"></path>
</svg>
<svg id="icon-attachment" width="32" height="32" viewBox="0 0 32 32" x="240" y="48">
<path fill="#444444" d="M20.807 10.22l-2.030-2.029-10.15 10.148c-1.682 1.681-1.682 4.408 0 6.089s4.408 1.681 6.090 0l12.18-12.178c2.804-2.802 2.804-7.346 0-10.148-2.802-2.803-7.347-2.803-10.149 0l-12.788 12.787c-0.009 0.009-0.019 0.018-0.027 0.026-3.909 3.909-3.909 10.245 0 14.153 3.908 3.908 10.246 3.908 14.156 0 0.009-0.009 0.016-0.018 0.026-0.027l0.001 0.001 8.729-8.728-2.031-2.029-8.729 8.727c-0.009 0.008-0.018 0.018-0.026 0.026-2.784 2.783-7.312 2.783-10.096 0-2.783-2.783-2.783-7.31 0-10.093 0.010-0.009 0.019-0.018 0.028-0.026l-0.001-0.002 12.79-12.786c1.678-1.679 4.411-1.679 6.090 0s1.678 4.411 0 6.089l-12.18 12.178c-0.56 0.56-1.47 0.56-2.030 0-0.559-0.559-0.559-1.47 0-2.029l10.15-10.149z"></path>
</svg>
<svg id="icon-sun" width="32" height="32" viewBox="0 0 32 32" x="288" y="48">
<path fill="#444444" d="M16 26c1.105 0 2 0.895 2 2v2c0 1.105-0.895 2-2 2s-2-0.895-2-2v-2c0-1.105 0.895-2 2-2zM16 6c-1.105 0-2-0.895-2-2v-2c0-1.105 0.895-2 2-2s2 0.895 2 2v2c0 1.105-0.895 2-2 2zM30 14c1.105 0 2 0.895 2 2s-0.895 2-2 2h-2c-1.105 0-2-0.895-2-2s0.895-2 2-2h2zM6 16c0 1.105-0.895 2-2 2h-2c-1.105 0-2-0.895-2-2s0.895-2 2-2h2c1.105 0 2 0.895 2 2zM25.899 23.071l1.414 1.414c0.781 0.781 0.781 2.047 0 2.828s-2.047 0.781-2.828 0l-1.414-1.414c-0.781-0.781-0.781-2.047 0-2.828s2.047-0.781 2.828 0zM6.101 8.929l-1.414-1.414c-0.781-0.781-0.781-2.047 0-2.828s2.047-0.781 2.828 0l1.414 1.414c0.781 0.781 0.781 2.047 0 2.828s-2.047 0.781-2.828 0zM25.899 8.929c-0.781 0.781-2.047 0.781-2.828 0s-0.781-2.047 0-2.828l1.414-1.414c0.781-0.781 2.047-0.781 2.828 0s0.781 2.047 0 2.828l-1.414 1.414zM6.101 23.071c0.781-0.781 2.047-0.781 2.828 0s0.781 2.047 0 2.828l-1.414 1.414c-0.781 0.781-2.047 0.781-2.828 0s-0.781-2.047 0-2.828l1.414-1.414z"></path>
<path fill="#444444" d="M16 8c-4.418 0-8 3.582-8 8s3.582 8 8 8c4.418 0 8-3.582 8-8s-3.582-8-8-8zM16 21c-2.761 0-5-2.239-5-5s2.239-5 5-5 5 2.239 5 5-2.239 5-5 5z"></path>
</svg>
<svg id="icon-brightness-contrast" width="32" height="32" viewBox="0 0 32 32" x="336" y="48">
<path fill="#444444" d="M16 8c-4.418 0-8 3.582-8 8s3.582 8 8 8 8-3.582 8-8-3.582-8-8-8zM16 21v-10c2.757 0 5 2.243 5 5s-2.243 5-5 5zM16 26c1.105 0 2 0.895 2 2v2c0 1.105-0.895 2-2 2s-2-0.895-2-2v-2c0-1.105 0.895-2 2-2zM16 6c-1.105 0-2-0.895-2-2v-2c0-1.105 0.895-2 2-2s2 0.895 2 2v2c0 1.105-0.895 2-2 2zM30 14c1.105 0 2 0.895 2 2s-0.895 2-2 2h-2c-1.105 0-2-0.895-2-2s0.895-2 2-2h2zM6 16c0 1.105-0.895 2-2 2h-2c-1.105 0-2-0.895-2-2s0.895-2 2-2h2c1.105 0 2 0.895 2 2zM25.899 23.071l1.414 1.414c0.781 0.781 0.781 2.047 0 2.828s-2.047 0.781-2.828 0l-1.414-1.414c-0.781-0.781-0.781-2.047 0-2.828s2.047-0.781 2.828 0zM6.101 8.929l-1.414-1.414c-0.781-0.781-0.781-2.047 0-2.828s2.047-0.781 2.828 0l1.414 1.414c0.781 0.781 0.781 2.047 0 2.828s-2.047 0.781-2.828 0zM25.899 8.929c-0.781 0.781-2.047 0.781-2.828 0s-0.781-2.047 0-2.828l1.414-1.414c0.781-0.781 2.047-0.781 2.828 0s0.781 2.047 0 2.828l-1.414 1.414zM6.101 23.071c0.781-0.781 2.047-0.781 2.828 0s0.781 2.047 0 2.828l-1.414 1.414c-0.781 0.781-2.047 0.781-2.828 0s-0.781-2.047 0-2.828l1.414-1.414z"></path>
</svg>
<svg id="icon-heart" width="32" height="32" viewBox="0 0 32 32" x="384" y="48">
<path fill="#444444" d="M23.6 2c-3.363 0-6.258 2.736-7.599 5.594-1.342-2.858-4.237-5.594-7.601-5.594-4.637 0-8.4 3.764-8.4 8.401 0 9.433 9.516 11.906 16.001 21.232 6.13-9.268 15.999-12.1 15.999-21.232 0-4.637-3.763-8.401-8.4-8.401z"></path>
</svg>
<svg id="icon-warning" width="32" height="32" viewBox="0 0 32 32" x="432" y="48">
<path fill="#444444" d="M16 2.899l13.409 26.726h-26.819l13.409-26.726zM16 0c-0.69 0-1.379 0.465-1.903 1.395l-13.659 27.222c-1.046 1.86-0.156 3.383 1.978 3.383h27.166c2.134 0 3.025-1.522 1.978-3.383h0l-13.659-27.222c-0.523-0.93-1.213-1.395-1.903-1.395v0z"></path>
<path fill="#444444" d="M18 26c0 1.105-0.895 2-2 2s-2-0.895-2-2c0-1.105 0.895-2 2-2s2 0.895 2 2z"></path>
<path fill="#444444" d="M16 22c-1.105 0-2-0.895-2-2v-6c0-1.105 0.895-2 2-2s2 0.895 2 2v6c0 1.105-0.895 2-2 2z"></path>
</svg>
<svg id="icon-info" width="32" height="32" viewBox="0 0 32 32" x="480" y="48">
<path fill="#444444" d="M14 9.5c0-0.825 0.675-1.5 1.5-1.5h1c0.825 0 1.5 0.675 1.5 1.5v1c0 0.825-0.675 1.5-1.5 1.5h-1c-0.825 0-1.5-0.675-1.5-1.5v-1z"></path>
<path fill="#444444" d="M20 24h-8v-2h2v-6h-2v-2h6v8h2z"></path>
<path fill="#444444" d="M16 0c-8.837 0-16 7.163-16 16s7.163 16 16 16 16-7.163 16-16-7.163-16-16-16zM16 29c-7.18 0-13-5.82-13-13s5.82-13 13-13 13 5.82 13 13-5.82 13-13 13z"></path>
</svg>
<svg id="icon-cancel-circle" width="32" height="32" viewBox="0 0 32 32" x="528" y="48">
<path fill="#444444" d="M16 0c-8.837 0-16 7.163-16 16s7.163 16 16 16 16-7.163 16-16-7.163-16-16-16zM16 29c-7.18 0-13-5.82-13-13s5.82-13 13-13 13 5.82 13 13-5.82 13-13 13z"></path>
<path fill="#444444" d="M21 8l-5 5-5-5-3 3 5 5-5 5 3 3 5-5 5 5 3-3-5-5 5-5z"></path>
</svg>
<svg id="icon-blocked" width="32" height="32" viewBox="0 0 32 32" x="576" y="48">
<path fill="#444444" d="M27.314 4.686c-3.022-3.022-7.040-4.686-11.314-4.686s-8.292 1.664-11.314 4.686c-3.022 3.022-4.686 7.040-4.686 11.314s1.664 8.292 4.686 11.314c3.022 3.022 7.040 4.686 11.314 4.686s8.292-1.664 11.314-4.686c3.022-3.022 4.686-7.040 4.686-11.314s-1.664-8.292-4.686-11.314zM28 16c0 2.588-0.824 4.987-2.222 6.949l-16.727-16.727c1.962-1.399 4.361-2.222 6.949-2.222 6.617 0 12 5.383 12 12zM4 16c0-2.588 0.824-4.987 2.222-6.949l16.727 16.727c-1.962 1.399-4.361 2.222-6.949 2.222-6.617 0-12-5.383-12-12z"></path>
</svg>
<svg id="icon-cross" width="32" height="32" viewBox="0 0 32 32" x="624" y="48">
<path fill="#444444" d="M31.708 25.708c-0-0-0-0-0-0l-9.708-9.708 9.708-9.708c0-0 0-0 0-0 0.105-0.105 0.18-0.227 0.229-0.357 0.133-0.356 0.057-0.771-0.229-1.057l-4.586-4.586c-0.286-0.286-0.702-0.361-1.057-0.229-0.13 0.048-0.252 0.124-0.357 0.228 0 0-0 0-0 0l-9.708 9.708-9.708-9.708c-0-0-0-0-0-0-0.105-0.104-0.227-0.18-0.357-0.228-0.356-0.133-0.771-0.057-1.057 0.229l-4.586 4.586c-0.286 0.286-0.361 0.702-0.229 1.057 0.049 0.13 0.124 0.252 0.229 0.357 0 0 0 0 0 0l9.708 9.708-9.708 9.708c-0 0-0 0-0 0-0.104 0.105-0.18 0.227-0.229 0.357-0.133 0.355-0.057 0.771 0.229 1.057l4.586 4.586c0.286 0.286 0.702 0.361 1.057 0.229 0.13-0.049 0.252-0.124 0.357-0.229 0-0 0-0 0-0l9.708-9.708 9.708 9.708c0 0 0 0 0 0 0.105 0.105 0.227 0.18 0.357 0.229 0.356 0.133 0.771 0.057 1.057-0.229l4.586-4.586c0.286-0.286 0.362-0.702 0.229-1.057-0.049-0.13-0.124-0.252-0.229-0.357z"></path>
</svg>
<svg id="icon-checkmark" width="32" height="32" viewBox="0 0 32 32" x="672" y="48">
<path fill="#444444" d="M27 4l-15 15-7-7-5 5 12 12 20-20z"></path>
</svg>
<svg id="icon-play3" width="32" height="32" viewBox="0 0 32 32" x="720" y="48">
<path fill="#444444" d="M6 4l20 12-20 12z"></path>
</svg>
<svg id="icon-pause2" width="32" height="32" viewBox="0 0 32 32" x="0" y="96">
<path fill="#444444" d="M4 4h10v24h-10zM18 4h10v24h-10z"></path>
</svg>
<svg id="icon-stop2" width="32" height="32" viewBox="0 0 32 32" x="48" y="96">
<path fill="#444444" d="M4 4h24v24h-24z"></path>
</svg>
<svg id="icon-backward2" width="32" height="32" viewBox="0 0 32 32" x="96" y="96">
<path fill="#444444" d="M18 5v10l10-10v22l-10-10v10l-11-11z"></path>
</svg>
<svg id="icon-forward3" width="32" height="32" viewBox="0 0 32 32" x="144" y="96">
<path fill="#444444" d="M16 27v-10l-10 10v-22l10 10v-10l11 11z"></path>
</svg>
<svg id="icon-first" width="32" height="32" viewBox="0 0 32 32" x="192" y="96">
<path fill="#444444" d="M4 28v-24h4v11l10-10v10l10-10v22l-10-10v10l-10-10v11z"></path>
</svg>
<svg id="icon-last" width="32" height="32" viewBox="0 0 32 32" x="240" y="96">
<path fill="#444444" d="M28 4v24h-4v-11l-10 10v-10l-10 10v-22l10 10v-10l10 10v-11z"></path>
</svg>
<svg id="icon-previous2" width="32" height="32" viewBox="0 0 32 32" x="288" y="96">
<path fill="#444444" d="M8 28v-24h4v11l10-10v22l-10-10v11z"></path>
</svg>
<svg id="icon-next2" width="32" height="32" viewBox="0 0 32 32" x="336" y="96">
<path fill="#444444" d="M24 4v24h-4v-11l-10 10v-22l10 10v-11z"></path>
</svg>
<svg id="icon-volume-high" width="34" height="32" viewBox="0 0 34 32" x="384" y="96">
<path fill="#444444" d="M27.814 28.814c-0.384 0-0.768-0.146-1.061-0.439-0.586-0.586-0.586-1.535 0-2.121 2.739-2.739 4.247-6.38 4.247-10.253s-1.508-7.514-4.247-10.253c-0.586-0.586-0.586-1.536 0-2.121s1.536-0.586 2.121 0c3.305 3.305 5.126 7.7 5.126 12.374s-1.82 9.069-5.126 12.374c-0.293 0.293-0.677 0.439-1.061 0.439zM22.485 25.985c-0.384 0-0.768-0.146-1.061-0.439-0.586-0.586-0.586-1.535 0-2.121 4.094-4.094 4.094-10.755 0-14.849-0.586-0.586-0.586-1.536 0-2.121s1.536-0.586 2.121 0c2.55 2.55 3.954 5.94 3.954 9.546s-1.404 6.996-3.954 9.546c-0.293 0.293-0.677 0.439-1.061 0.439v0zM17.157 23.157c-0.384 0-0.768-0.146-1.061-0.439-0.586-0.586-0.586-1.535 0-2.121 2.534-2.534 2.534-6.658 0-9.192-0.586-0.586-0.586-1.536 0-2.121s1.535-0.586 2.121 0c3.704 3.704 3.704 9.731 0 13.435-0.293 0.293-0.677 0.439-1.061 0.439z"></path>
<path fill="#444444" d="M13 30c-0.26 0-0.516-0.102-0.707-0.293l-7.707-7.707h-3.586c-0.552 0-1-0.448-1-1v-10c0-0.552 0.448-1 1-1h3.586l7.707-7.707c0.286-0.286 0.716-0.372 1.090-0.217s0.617 0.519 0.617 0.924v26c0 0.404-0.244 0.769-0.617 0.924-0.124 0.051-0.254 0.076-0.383 0.076z"></path>
</svg>
<svg id="icon-volume-medium" width="32" height="32" viewBox="0 0 32 32" x="480" y="96">
<path fill="#444444" d="M22.485 25.985c-0.384 0-0.768-0.146-1.061-0.439-0.586-0.586-0.586-1.535 0-2.121 4.094-4.094 4.094-10.755 0-14.849-0.586-0.586-0.586-1.536 0-2.121s1.536-0.586 2.121 0c2.55 2.55 3.954 5.94 3.954 9.546s-1.404 6.996-3.954 9.546c-0.293 0.293-0.677 0.439-1.061 0.439v0zM17.157 23.157c-0.384 0-0.768-0.146-1.061-0.439-0.586-0.586-0.586-1.535 0-2.121 2.534-2.534 2.534-6.658 0-9.192-0.586-0.586-0.586-1.536 0-2.121s1.535-0.586 2.121 0c3.704 3.704 3.704 9.731 0 13.435-0.293 0.293-0.677 0.439-1.061 0.439z"></path>
<path fill="#444444" d="M13 30c-0.26 0-0.516-0.102-0.707-0.293l-7.707-7.707h-3.586c-0.552 0-1-0.448-1-1v-10c0-0.552 0.448-1 1-1h3.586l7.707-7.707c0.286-0.286 0.716-0.372 1.090-0.217s0.617 0.519 0.617 0.924v26c0 0.404-0.244 0.769-0.617 0.924-0.124 0.051-0.254 0.076-0.383 0.076z"></path>
</svg>
<svg id="icon-volume-low" width="32" height="32" viewBox="0 0 32 32" x="528" y="96">
<path fill="#444444" d="M17.157 23.157c-0.384 0-0.768-0.146-1.061-0.439-0.586-0.586-0.586-1.535 0-2.121 2.534-2.534 2.534-6.658 0-9.192-0.586-0.586-0.586-1.536 0-2.121s1.535-0.586 2.121 0c3.704 3.704 3.704 9.731 0 13.435-0.293 0.293-0.677 0.439-1.061 0.439z"></path>
<path fill="#444444" d="M13 30c-0.26 0-0.516-0.102-0.707-0.293l-7.707-7.707h-3.586c-0.552 0-1-0.448-1-1v-10c0-0.552 0.448-1 1-1h3.586l7.707-7.707c0.286-0.286 0.716-0.372 1.090-0.217s0.617 0.519 0.617 0.924v26c0 0.404-0.244 0.769-0.617 0.924-0.124 0.051-0.254 0.076-0.383 0.076z"></path>
</svg>
<svg id="icon-volume-mute" width="32" height="32" viewBox="0 0 32 32" x="576" y="96">
<path fill="#444444" d="M13 30c-0.26 0-0.516-0.102-0.707-0.293l-7.707-7.707h-3.586c-0.552 0-1-0.448-1-1v-10c0-0.552 0.448-1 1-1h3.586l7.707-7.707c0.286-0.286 0.716-0.372 1.090-0.217s0.617 0.519 0.617 0.924v26c0 0.404-0.244 0.769-0.617 0.924-0.124 0.051-0.254 0.076-0.383 0.076z"></path>
</svg>
<svg id="icon-volume-mute2" width="32" height="32" viewBox="0 0 32 32" x="624" y="96">
<path fill="#444444" d="M30 19.348v2.652h-2.652l-3.348-3.348-3.348 3.348h-2.652v-2.652l3.348-3.348-3.348-3.348v-2.652h2.652l3.348 3.348 3.348-3.348h2.652v2.652l-3.348 3.348 3.348 3.348z"></path>
<path fill="#444444" d="M13 30c-0.26 0-0.516-0.102-0.707-0.293l-7.707-7.707h-3.586c-0.552 0-1-0.448-1-1v-10c0-0.552 0.448-1 1-1h3.586l7.707-7.707c0.286-0.286 0.716-0.372 1.090-0.217s0.617 0.519 0.617 0.924v26c0 0.404-0.244 0.769-0.617 0.924-0.124 0.051-0.254 0.076-0.383 0.076z"></path>
</svg>
<svg id="icon-volume-increase" width="32" height="32" viewBox="0 0 32 32" x="672" y="96">
<path fill="#444444" d="M32 18h-6v6h-4v-6h-6v-4h6v-6h4v6h6v4z"></path>
<path fill="#444444" d="M13 30c-0.26 0-0.516-0.102-0.707-0.293l-7.707-7.707h-3.586c-0.552 0-1-0.448-1-1v-10c0-0.552 0.448-1 1-1h3.586l7.707-7.707c0.286-0.286 0.716-0.372 1.090-0.217s0.617 0.519 0.617 0.924v26c0 0.404-0.244 0.769-0.617 0.924-0.124 0.051-0.254 0.076-0.383 0.076z"></path>
</svg>
<svg id="icon-volume-decrease" width="32" height="32" viewBox="0 0 32 32" x="720" y="96">
<path fill="#444444" d="M16 14h16v4h-16v-4z"></path>
<path fill="#444444" d="M13 30c-0.26 0-0.516-0.102-0.707-0.293l-7.707-7.707h-3.586c-0.552 0-1-0.448-1-1v-10c0-0.552 0.448-1 1-1h3.586l7.707-7.707c0.286-0.286 0.716-0.372 1.090-0.217s0.617 0.519 0.617 0.924v26c0 0.404-0.244 0.769-0.617 0.924-0.124 0.051-0.254 0.076-0.383 0.076z"></path>
</svg>
<svg id="icon-loop2" width="32" height="32" viewBox="0 0 32 32" x="0" y="144">
<path fill="#444444" d="M27.802 5.197c-2.925-3.194-7.13-5.197-11.803-5.197-8.837 0-16 7.163-16 16h3c0-7.18 5.82-13 13-13 3.844 0 7.298 1.669 9.678 4.322l-4.678 4.678h11v-11l-4.198 4.197z"></path>
<path fill="#444444" d="M29 16c0 7.18-5.82 13-13 13-3.844 0-7.298-1.669-9.678-4.322l4.678-4.678h-11v11l4.197-4.197c2.925 3.194 7.13 5.197 11.803 5.197 8.837 0 16-7.163 16-16h-3z"></path>
</svg>
<svg id="icon-arrow-up" width="32" height="32" viewBox="0 0 32 32" x="48" y="144">
<path fill="#444444" d="M16 1l-15 15h9v16h12v-16h9z"></path>
</svg>
<svg id="icon-arrow-up-right" width="32" height="32" viewBox="0 0 32 32" x="96" y="144">
<path fill="#444444" d="M9 0l8 8-17 17 7 7 17-17 8 8v-23h-23z"></path>
</svg>
<svg id="icon-arrow-right" width="32" height="32" viewBox="0 0 32 32" x="144" y="144">
<path fill="#444444" d="M31 16l-15-15v9h-16v12h16v9z"></path>
</svg>
<svg id="icon-arrow-down-right" width="32" height="32" viewBox="0 0 32 32" x="192" y="144">
<path fill="#444444" d="M32 9l-8 8-17-17-7 7 17 17-8 8h23v-23z"></path>
</svg>
<svg id="icon-arrow-down" width="32" height="32" viewBox="0 0 32 32" x="240" y="144">
<path fill="#444444" d="M16 31l15-15h-9v-16h-12v16h-9z"></path>
</svg>
<svg id="icon-arrow-down-left" width="32" height="32" viewBox="0 0 32 32" x="288" y="144">
<path fill="#444444" d="M23 32l-8-8 17-17-7-7-17 17-8-8v23h23z"></path>
</svg>
<svg id="icon-arrow-left" width="32" height="32" viewBox="0 0 32 32" x="336" y="144">
<path fill="#444444" d="M1 16l15 15v-9h16v-12h-16v-9z"></path>
</svg>
</svg>
